<svg class="vector" width="300px" height="300px" xmlns="http://www.w3.org/2000/svg" baseProfile="full" version="1.1" style="width: 300px; height: 300px; fill: none; stroke-width: 5;"><g transform="translate(0,0)"><path id="layer_3" d="" style="stroke: rgb(68, 68, 68); stroke-width: 5; stroke-linecap: round; stroke-linejoin: round; fill: none; stroke-dasharray: 0, 0;"></path><path id="layer_2" d="" style="stroke: rgb(119, 119, 119); stroke-width: 5; stroke-linecap: round; stroke-linejoin: round; fill: none; stroke-dasharray: 0, 0;"></path><path id="layer_1" d="M75.0,120.0 L75.0,120.0 L165.0,120.0 M75.0,180.0 L75.0,180.0 L105.0,180.0 M180.0,75.0 L180.0,75.0 L180.0,165.0 M120.0,195.0 A-15,15 0 0,0 105.0,210.0 A15,15 0 0,0 120.0,225.0 A15,-15 0 0,0 135.0,210.0 A-15,-15 0 0,0 120.0,195.0 M120.0,195.0 L120.0,195.0 L120.0,135.0 M135.0,180.0 L135.0,180.0 L225.0,180.0 M195.0,120.0 L195.0,120.0 L225.0,120.0 M180.0,195.0 L180.0,195.0 L180.0,225.0 M105.0,75.0 L105.0,75.0 L105.0,90.0 M105.0,90.0 A15,15 0 0,0 120.0,105.0 A15,-15 0 0,0 135.0,90.0 M135.0,90.0 L135.0,90.0 L135.0,75.0 " style="stroke: rgb(255, 255, 255); stroke-width: 12; stroke-linecap: round; stroke-linejoin: miter; fill: none; stroke-dasharray: 0, 0;"></path></g></svg>